# xmcd CD database file generated by freedbAccess_ocx
#
# Track frame offsets:
#       150
#       10627
#       21790
#       36320
#       50355
#       61785
#       73515
#       93570
#       106287
#       117682
#       125847
#       142565
#       151922
#       166487
#       178620
#       191717
#       211210
#       225052
#
# Disc length: 3108 seconds
#
# Revision: 0
# Processed by: cddbd v1.4PL0 Copyright (c) Steve Scherf et al.
# Submitted via: CDnGo 2.00
#
DISCID=e90c2212
DTITLE=Ladislav Vodicka - Starej Voda po 20-ti letech
DYEAR=1996
DGENRE=Country
TTITLE0=Blue Train
TTITLE1=Tva noha musi stale jit
TTITLE2=At vane dal
TTITLE3=Vim jen, ze se vzdalim
TTITLE4=Zakourena rokle
TTITLE5=Bludne hory
TTITLE6=Teddy Bear
TTITLE7=Slepa ulice
TTITLE8=Chlap co chvatal
TTITLE9=Deep In The Hearts Of Texas
TTITLE10=Obchodnik s destem
TTITLE11=Na nikom a po nikom
TTITLE12=Toulava hvezda
TTITLE13=V jeskynich
TTITLE14=Jedno rano
TTITLE15=Stary mak
TTITLE16=Tom Dooley
TTITLE17=Chatanooga Choo Choo
EXTD=
EXTT0=
EXTT1=
EXTT2=
EXTT3=
EXTT4=
EXTT5=
EXTT6=
EXTT7=
EXTT8=
EXTT9=
EXTT10=
EXTT11=
EXTT12=
EXTT13=
EXTT14=
EXTT15=
EXTT16=
EXTT17=
PLAYORDER=
